<svg
    
    viewBox="0 0 1681 417" xmlns="http://www.w3.org/2000/svg">
    <g stroke="none" stroke-width="1">
        <g>
            <path fill="#a0aec0"
                d="M1621.33 306.03l.578.008c34.43 0 58.659-23.855 58.924-57.992.126-16.904-4.757-32.38-13.753-43.558-9.512-11.834-22.829-18.142-38.516-18.267h-.313c-21.17 0-40.83 16.062-60.1 49.112l-1.533 2.638-.984-2.875c-4.866-14.163-9.2-25.963-11.791-33.025-1.817-4.925-2.617-7.138-2.809-7.854-.925-3.575-3.979-5.796-7.987-5.796-2.463 0-5.08.837-7.554 2.412-2.455 1.563-3.825 3.471-4.317 6.021l-.125.383c-19.287 60.155-35.188 89.359-48.662 89.359-1.959-.017-3.492-.654-4.634-1.93-3.529-3.9-2.662-13.174-1.462-26.016.879-9.433 1.883-20.112 1.466-31.446-.791-21.787-12.716-34.87-31.879-35.012-24.358-.009-40.141 25.933-47.412 41.395l-2.171 4.609-.48-5.083c-1.816-19.134-8.237-41.988-28.512-42.138-23.65 0-41.667 27.75-52.658 51.042l-2.946 6.241.292-6.891c1.304-31.063 2.375-49.404 3.187-54.492.8-5.104.38-8.53-1.292-10.492-1.583-1.837-4.566-2.516-8.941-2.241-7.571.479-11.442 5.087-17.271 20.533-9.575 25.367-33.93 84.383-53.375 84.383-3.858-.029-6.912-1.341-9.15-3.912-8.154-9.346-4.892-34.621-.38-69.592l.342-2.646c2.138-16.558-1.504-20.091-10.5-21.745a15.487 15.487 0 00-2.733-.267c-7.183 0-10.541 6.879-17.25 25.996-11.937 34.016-27.291 69.791-45.241 69.791-.659 0-1.305-.05-1.967-.154-9.513-1.62-9.304-15.729-9.042-33.608.134-9.667.296-20.63-1.191-30.525-2.684-17.758-13.142-28.846-27.313-28.958-28.267 0-47.33 36.2-56.196 57.783l-2.008 4.883-.671-5.242a486.444 486.444 0 01-3.43-41.729l-.024-.52.32-.409c52.905-66.596 76.647-114.654 76.963-155.829.204-26.304-11.933-42.104-32.462-42.267-15.013 0-50.705 12.505-63.109 128.321a669.633 669.633 0 00-3.75 65.45l-.008.434-.246.35c-24.204 35.033-75.862 95.295-126.437 95.295-45.696 0-82.154-36.97-82.154-102.229 0-87.483 61.92-141.196 108.52-141.196h.388c10.125.075 18.808 2.904 25.108 8.18 6.542 5.474 9.971 13.15 9.9 22.191-.091 12.08-4.029 18.288-7.833 24.284-.971 1.545-1.95 3.079-2.842 4.704-.9 1.641-1.72 4.02-.525 6.058 1.225 2.087 4.354 3.4 8.167 3.43 11.091 0 27.866-16.06 28.05-40.25.192-25.322-21.138-51.413-59.192-51.413-57.587 0-135.15 63.266-135.15 165.8 0 72.529 45.475 122.658 107.075 122.658 43.713 0 86.954-31.3 125.25-83.58l2.346-3.166.167 3.934c.812 19.137 2.2 34.212 3.212 45.224.654 7.08 1.13 12.192 1.113 15.013-.05 6.18.954 10.48 3.091 13.112 2.13 2.638 5.513 3.884 10.646 3.917 8.6 0 10.325-5.862 13.73-20.329l.978-4.13c4.234-17.528 19.867-74.745 43.38-74.745 3.841.037 6.804 1.17 8.908 3.4 5.192 5.508 4.625 16.813 3.967 29.908-.417 8.171-.834 16.609-.017 24.83 2.213 22.191 11.796 33.045 29.292 33.17 17.966.009 36.716-19.346 46.612-37.329l1.867-3.387.729 3.808c1.825 9.625 9.992 41.217 35.563 41.217 23.175 0 43.058-24.404 64.85-74.634l2.854-6.558-.175 7.154c-.463 19.034-1.492 42.275-1.5 60.246-.009 13.9 1.396 19.204 7.82 19.204l1.459.067c6.162 0 10.346-3.68 12.433-10.954 16.4-57.155 30.571-83.771 44.613-83.771 13.75.104 15.037 25.246 16.141 69.67l.075 3.117c.334 15.538.896 22.413 10.546 22.484 7.325 0 9.146-5.755 12.934-19.921.725-2.7 1.508-5.663 2.437-8.863 13.242-45.937 24.217-64.679 37.883-64.679 11.7.088 12.35 12.15 12.567 16.113.45 8.487-.425 17.375-1.267 25.954-.787 7.975-1.596 16.225-1.291 23.887.716 17.967 10.55 27.938 27.7 28.067 22.258 0 42.35-26.033 59.946-77.358l1.22-3.575 1.396 3.52c3.196 8.067 7.354 18.988 11.2 32.017l.146.496-.213.47c-17.041 37.834-29.062 79.976-29.233 102.493-.229 29.654 13.188 48.925 34.184 49.087h.362c11.42 0 38.042-4.587 38.558-47.02.213-17.392-3.9-41.984-12.204-73.105l-.954-3.563 3.063 2.042c10.637 7.038 22.591 10.8 34.616 10.9zm-573.697-143.913c.475-10.634 1.371-20.988 2.642-30.78 8.242-63.091 25.433-107.15 41.83-107.15h.074c7.817.059 11.725 5.971 11.646 17.563-.225 28.487-18.275 69.27-53.642 121.217l-2.766 4.066.216-4.916zm522.804 226.82c-2.608 3.476-6.241 5.238-10.791 5.238-5.225-.046-9.15-1.863-11.821-5.433-7.483-9.996-5.375-33.496 6.833-76.15a370.41 370.41 0 014.717-15.234l1.417-4.254 1.245 4.304c14.221 49.238 17.046 80.03 8.4 91.53zm4.426-126.145l-.259-.471-.516-1.638.241-.487c16.217-33.417 34.8-52.571 50.967-52.571h.167c18.258.137 30.883 16.57 30.708 39.942-.121 15.6-7 24.583-12.742 29.37-6.554 5.467-15.283 8.592-23.95 8.592-21.367-.162-36.033-12.458-44.617-22.737zM540.55 300.504c25.033-2 44.892-36.046 52.267-50.596l1.9-3.75.72 4.142c3.542 20.458 14.671 54.833 49.484 55.108h.291c15.059 0 32.142-9.212 49.409-26.633l1.267-1.28.92 1.538c11.625 19.442 27.217 29.771 43.817 28.921 24.438-1.27 39.27-18.587 40.575-30.617.333-3.066-.475-5.954-2.23-7.9-2.195-2.45-5.387-2.733-7.728-.487l-1.121 1.058c-5.688 5.463-16.288 15.642-27.838 16.242-14.141.692-24.6-7.762-31.358-25.212l-.28-.734.476-.616c38.887-50.863 66.175-128.471 63.479-180.525-1.242-24.092-8.246-52.813-34.558-52.813l-1.963.05c-10.079.52-19.246 5.325-27.241 14.27-24.413 27.313-37.188 94.538-32.55 171.267.958 15.942 3.729 30.842 8.225 44.271l.254.754-.513.609c-14.429 16.862-28.667 26.15-40.091 26.15-27.488 0-26.563-46.092-24.392-84.309.47-8.241 1.167-13.491-1.271-16.475-1.742-2.137-4.658-3.191-8.908-3.225l-.496-.004c-9.784 0-11.83 2.013-16.833 16.53-10.413 30.158-30.967 80.77-51.642 80.77-5.73-.054-10.104-2.008-13.1-5.825-10.03-12.8-2.413-44.725 3.704-70.387 1.1-4.613 2.154-9.042 3.058-13.142 1.338-6.083.93-10.52-1.22-13.208-2.159-2.68-6.463-3.763-12.142-3.313-8.854.709-14.517 4.417-17.254 21.254l-.55 3.5-2.059-2.491c-3.866-5.708-11.404-12.508-25.4-12.508-1.225 0-2.495.05-3.808.154-14.933 1.225-31.938 11.629-44.383 27.158-14.53 18.13-21.471 41.075-19.538 64.62.1 1.247.28 2.442.459 3.63l.1.654-.45.496c-8.692 9.467-17.55 14.275-26.326 14.275-13.545-.1-21.316-10.167-21.316-26.938 0-28.225 19.129-113.32 19.129-144.125 0-32.783-14.608-50.629-39.975-50.825h-.383c-37.042 0-65.909 42.03-93.534 128.505a1413.034 1413.034 0 00-7.641 24.975l-3.88 13.004 1.146-13.517a1682.328 1682.328 0 005.238-87.112c1.375-41.792-4.271-68.688-17.275-82.221-7.013-7.3-16.288-10.896-28.371-10.988h-.308c-45.325 0-67.038 76.442-82.85 130.38-4.771 16.283-14.175 53.012-20.454 78.12l3.72-6.046c2.788-31.616 10.867-110.812 10.338-153.779-.575-46.091-15.917-66.754-49.771-67.012h-.417c-18.083 0-30.629 8.987-37.966 16.525C7.358 52.92.017 70.604.425 85.875c.25 9.283 5.946 17.546 10.262 17.546 2.813 0 4.371-3.754 5.046-5.992 10.475-34.62 24.03-51.454 41.421-51.454 7.213.054 12.583 2.18 16.6 6.5 13.592 14.58 11.117 53.946 6.638 125.417-1.45 23.033-3.084 49.129-4.463 78.816-.24 4.899-.527 9.795-.858 14.688-1.321 20.612-2.371 36.904 5.45 38.116 10.175 1.588 16.796-2.545 20.187-12.612 5.025-14.942 16.296-55.78 38.105-130.4 20.925-71.608 36.733-97.662 56.958-97.662 23.367 0 25.108 40.12 20.825 124.787-.913 17.95-2.133 38.28-3.071 60.4-.13 3.108-.275 6.125-.425 9.025-.9 18.32-1.608 32.767 3.625 38.308 1.633 1.725 3.85 2.58 6.787 2.596 10.13 0 13.175-8.879 18.221-23.6.892-2.596 1.838-5.37 2.892-8.27 34.708-95.746 60.37-178.817 94.817-178.817 10.329 0 18.37 8.391 18.37 24.758 0 37.78-18.475 110.775-18.475 147.792 0 13.262 3.817 25.162 11.026 33.529 7.4 8.591 17.754 13.166 29.941 13.27h.267c11.525 0 23.529-5.6 35.696-16.641l1.141-1.033.917 1.237c8.012 10.767 20.938 16.554 34.896 15.48 21.408-1.667 39.37-20.73 46.054-38.705l1.308-3.517 1.304 3.517c4.967 13.338 15.709 29.413 38.663 27.55zM737.817 50.33l.366-.008c2.446 0 4.596 1.225 6.38 3.65 8.5 11.492 8.629 53.437-5.992 101.162-8.354 27.275-19.592 53.042-32.484 74.504l-2.058 3.417-.525-3.954c-1.517-11.542-2.267-23.558-2.792-33.783-3.729-72.138 18.092-144 37.105-144.988zM500.283 218.925c-7.491 30.146-21.858 66.537-47.762 68.62l-2.108.088c-10.746 0-16.771-7.033-17.909-20.916-1.425-17.367 6.063-37.704 19.071-51.825 8.28-8.992 17.62-13.942 26.3-13.942h.175c10.954.083 18.633 8.88 22.162 17.083l.188.425-.117.467zm120.146-110.52c-9.562 0-17.283 7.532-17.358 16.795-.075 9.33 7.6 16.98 17.1 17.05l.137 1.387v-1.387c9.425 0 17.142-7.53 17.217-16.787.075-9.334-7.596-16.984-17.096-17.059zm601.221 0c-9.563 0-17.28 7.532-17.358 16.795-.075 9.33 7.596 16.98 17.1 17.05l.133 1.387v-1.387c9.433 0 17.15-7.53 17.225-16.787.067-9.334-7.6-16.984-17.1-17.059z" />
        </g>
    </g>
</svg>