<svg
    viewBox="0 0 680 680" xmlns="http://www.w3.org/2000/svg">
    <g stroke="none" stroke-width="1">
        <g transform="translate(-401 -701)">
            <g transform="translate(-293 -236)">
                <g transform="translate(463 909)">
                    <g transform="translate(0 28)">
                        <g transform="translate(229.885)">
                            <path fill="#a0aec0"
                                d="M242.088 0c-36.478.027-66 29.582-65.973 66-.027 36.418 29.522 65.973 66 66h66V66.027C308.142 29.608 278.593.054 242.088 0c.027 0 .027 0 0 0zm.23 175H66.912c-36.365.027-65.824 29.576-65.797 65.987-.054 36.41 29.405 65.96 65.77 66.013h175.433c36.366-.027 65.824-29.576 65.797-65.987.027-36.437-29.431-65.986-65.797-66.013zM681.115 240.987c.027-36.411-29.522-65.96-66-65.987-36.478.027-66.027 29.576-66 65.987V307h66c36.478-.027 66.027-29.576 66-66.013zm-175 .214V65.772C506.142 29.506 476.614.054 440.13 0c-36.486.027-66.04 29.48-66.014 65.772v175.429c-.054 36.293 29.501 65.745 65.987 65.799 36.485-.027 66.04-29.48 66.013-65.8zM440.115 680c36.478-.027 66.027-29.582 66-66 .027-36.418-29.522-65.973-66-66h-66v66c-.027 36.392 29.522 65.946 66 66zm-.23-175h175.433c36.366-.027 65.824-29.576 65.797-65.987.054-36.41-29.404-65.96-65.77-66.013H439.912c-36.366.027-65.824 29.576-65.797 65.987-.027 36.437 29.405 65.986 65.77 66.013zM1.115 439c-.027 36.418 29.522 65.973 66 66 36.478-.027 66.027-29.582 66-66v-66h-66c-36.478.027-66.027 29.582-66 66zm175-.249v175.444c-.054 36.296 29.501 65.751 65.987 65.805 36.485-.027 66.04-29.482 66.013-65.778V438.805c.054-36.296-29.501-65.751-65.986-65.805-36.513 0-66.04 29.455-66.014 65.751 0 0 0 .027 0 0z" />
                        </g>
                    </g>
                </g>
            </g>
        </g>
    </g>
</svg>