<svg
    viewBox="0 0 2499 1037" xmlns="http://www.w3.org/2000/svg">
    <g stroke="none" stroke-width="1">
        <g>
            <path fill="#a0aec0"
                d="M261.062 466.768c-53.833-19.912-83.335-35.399-83.335-59.735 0-20.652 16.963-32.45 47.201-32.45 55.31 0 112.09 21.388 151.178 40.559l22.124-136.427c-30.973-14.752-94.397-39.088-182.151-39.088-61.947 0-113.573 16.223-150.443 46.46-38.352 31.71-58.263 77.434-58.263 132.744 0 100.293 61.211 143.07 160.769 179.203 64.159 22.86 85.547 39.088 85.547 64.16 0 24.336-20.652 38.346-58.263 38.346-46.46 0-123.153-22.86-173.302-52.356L0 786.087c42.771 24.337 122.417 49.409 205.017 49.409 65.63 0 120.204-15.487 157.08-44.984 41.293-32.45 62.682-80.381 62.682-142.328 0-102.511-62.683-145.282-163.717-181.416zm523.877-80.387l22.124-135.692H690.265V85.966l-157.035 25.84-22.677 138.883-55.232 8.96-20.675 126.732h75.68v266.227c0 69.32 17.7 117.257 53.833 146.754 30.238 24.336 73.745 36.134 134.956 36.134 47.196 0 75.957-8.109 95.868-13.275V678.416c-11.062 2.953-36.133 8.114-53.097 8.114-36.134 0-51.62-18.435-51.62-60.47V386.38h94.673zm350.752-143.618c-51.62 0-92.92 27.102-109.142 75.775l-11.062-67.849H855.459v573.745h182.887V452.017c22.865-28.026 55.31-38.159 99.558-38.159 9.59 0 19.911 0 32.45 2.213V247.188c-12.539-2.948-23.6-4.425-34.663-4.425zm171.095-48.86c53.098 0 95.869-43.507 95.869-96.604 0-53.839-42.771-96.61-95.869-96.61-53.838 0-96.609 42.771-96.609 96.61 0 53.097 42.771 96.604 96.61 96.604zm-92.184 56.786h183.628v573.745h-183.628V250.689zm703.999 51.62c-32.45-42.035-77.434-62.682-134.956-62.682-53.097 0-99.558 22.124-143.07 68.584l-9.585-57.522h-160.769v786.134l182.893-30.232V822.22c28.02 8.85 56.78 13.275 82.594 13.275 45.725 0 112.096-11.798 163.717-67.843 49.408-53.839 74.485-137.168 74.485-247.052 0-97.345-18.44-171.09-55.31-218.291zm-151.92 353.983c-14.75 28.025-37.61 42.777-64.159 42.777-18.435 0-34.662-3.69-49.408-11.062V415.142c30.973-32.445 58.993-36.134 69.32-36.134 46.46 0 69.32 50.15 69.32 148.23 0 56.045-8.11 99.557-25.073 129.054zm731.566-123.894c0-91.443-19.912-163.717-59-214.602-39.822-51.62-99.557-78.169-175.514-78.169-155.608 0-252.212 115.044-252.212 299.408 0 103.247 25.808 180.68 76.692 230.089 45.725 44.248 111.361 66.372 196.168 66.372 78.169 0 150.442-18.435 196.167-48.673l-19.912-125.365c-44.989 24.336-97.345 37.61-156.344 37.61-35.398 0-59.734-7.378-77.434-22.864-19.175-16.223-30.237-42.771-33.921-80.382h303.097c.736-8.85 2.213-50.15 2.213-63.424zm-306.787-48.672c5.16-81.859 27.284-120.205 69.32-120.205 41.3 0 62.688 39.087 65.636 120.205H2191.46z" />
        </g>
    </g>
</svg>