<svg
    viewBox="0 0 2500 2158" xmlns="http://www.w3.org/2000/svg">
    <g stroke="none" stroke-width="1">
        <g transform="translate(-.157)">
            <path fill="#a0aec0"
                d="M2498.932 499.093c-11.204 242.78-181.152 575.201-509.837 997.268-339.895 440.74-627.499 661.11-862.808 661.11-145.67 0-268.924-134.462-369.776-403.39l-201.693-739.547C480.115 745.61 399.81 611.145 313.904 611.145c-18.675 0-84.04 39.219-196.095 117.656L.155 577.53a31955.67 31955.67 0 00364.171-324.952C528.669 110.644 651.928 35.944 734.1 28.472c194.224-18.675 313.746 113.921 358.567 397.786 48.556 306.277 82.172 496.767 100.845 571.47 56.027 253.986 117.656 380.98 184.887 380.98 52.29 0 130.73-82.172 235.311-246.516 104.584-164.345 160.609-289.47 168.078-375.376 14.94-141.934-41.085-212.9-168.078-212.9-59.762 0-121.392 13.075-184.887 39.219C1552.082 183.48 1787.393-10.745 2134.757.462c257.721 7.471 379.113 173.683 364.17 498.635l.005-.004z" />
        </g>
    </g>
</svg>